<svg xmlns="http://www.w3.org/2000/svg" viewBox="0 0 200 200" width="200" height="200">
  <defs>
    <style>
      @import url('https://fonts.googleapis.com/css2?family=Space+Grotesk:wght@500;700&amp;family=Work+Sans:wght@500;600&amp;display=swap');
    </style>
  </defs>
  <!-- Circle background -->
  <circle cx="100" cy="100" r="96" fill="#fbf7f0" stroke="#eadfcd" stroke-width="4"/>
  <!-- Confetti pieces -->
  <rect x="30" y="25" width="8" height="8" rx="1" fill="#54b9a7" transform="rotate(15 34 29)"/>
  <rect x="160" y="30" width="6" height="6" rx="1" fill="#1b1a18" transform="rotate(-20 163 33)"/>
  <rect x="45" y="55" width="5" height="5" rx="1" fill="#eadfcd" transform="rotate(30 48 58)"/>
  <rect x="150" y="60" width="7" height="7" rx="1" fill="#54b9a7" transform="rotate(-10 154 64)"/>
  <rect x="25" y="90" width="6" height="6" rx="1" fill="#1b1a18" transform="rotate(45 28 93)"/>
  <rect x="170" y="95" width="5" height="5" rx="1" fill="#eadfcd" transform="rotate(-35 173 98)"/>
  <rect x="35" y="130" width="7" height="7" rx="1" fill="#54b9a7" transform="rotate(20 39 134)"/>
  <rect x="155" y="140" width="6" height="6" rx="1" fill="#1b1a18" transform="rotate(-25 158 143)"/>
  <rect x="50" y="160" width="5" height="5" rx="1" fill="#eadfcd" transform="rotate(40 53 163)"/>
  <rect x="145" y="165" width="8" height="8" rx="1" fill="#54b9a7" transform="rotate(-15 149 169)"/>
  <!-- Circles confetti -->
  <circle cx="20" cy="60" r="4" fill="#54b9a7"/>
  <circle cx="180" cy="140" r="3" fill="#1b1a18"/>
  <circle cx="40" cy="170" r="3" fill="#54b9a7"/>
  <circle cx="165" cy="50" r="4" fill="#eadfcd"/>
  <!-- Center content -->
  <text x="100" y="90" text-anchor="middle" font-family="'Space Grotesk', sans-serif" font-weight="700" font-size="26" fill="#1b1a18">PartyTab</text>
  <text x="100" y="115" text-anchor="middle" font-family="'Work Sans', sans-serif" font-weight="600" font-size="16" fill="#54b9a7">.app</text>
  <!-- Small tagline -->
  <text x="100" y="145" text-anchor="middle" font-family="'Work Sans', sans-serif" font-weight="500" font-size="10" fill="#6f6a61">Party now. Settle later.</text>
</svg>